<?xml version="1.0" encoding="utf-8"?>
<!-- Generator: Adobe Illustrator 23.0.3, SVG Export Plug-In . SVG Version: 6.00 Build 0)  -->
<svg version="1.1" id="Layer_1" xmlns="http://www.w3.org/2000/svg" xmlns:xlink="http://www.w3.org/1999/xlink" x="0px" y="0px"
	 viewBox="0 0 512 512" style="enable-background:new 0 0 512 512;" xml:space="preserve">
<style type="text/css">
	.st0{fill:#FF200E;}
	.st1{fill:#FFF436;}
	.st2{fill:#172CC2;}
	.st3{fill:#FFE15A;}
	.st4{fill:#FF4B55;}
	.st5{fill:#41479B;}
	.st6{fill:#5A4646;}
	.st7{fill:#E6E1CD;}
	.st8{fill:#FFD0AF;}
	.st9{fill:#FFAF94;}
	.st10{fill:#8CB400;}
	.st11{fill:#69C3FF;}
	.st12{fill:#009B64;}
	.st13{fill:#F5F5F5;}
	.st14{fill:#5AA0E6;}
	.st15{fill:#FFC88C;}
	.st16{fill:#E1E1E1;}
	.st17{fill:#966446;}
	.st18{fill:#BE915A;}
	.st19{fill:#B9B9B9;}
	.st20{fill:none;stroke:#000000;stroke-width:12;stroke-miterlimit:10;}
</style>
<g>
	<path class="st0" d="M11,393.8c0,56.7,44,103,99.6,106.9h290.7c55.7-3.9,99.6-50.3,99.6-106.9v-15.4H11V393.8z"/>
	<path class="st1" d="M401.4,11.3H110.6C55,15.1,11,61.5,11,118.2V256h490V118.2C501,61.5,457,15.1,401.4,11.3z"/>
	<rect x="11" y="256" class="st2" width="490" height="122.4"/>
	<path class="st3" d="M247.2,303.1l61.7-52.9v76.6c0,12.9-10.5,23.4-23.4,23.4l0,0c-5.8,0-11.3-2.1-15.6-6l-22.7-20.4L247.2,303.1
		L247.2,303.1z"/>
	<path class="st4" d="M279.7,333.2l-17.9-16.1v-26.6l32.3-27.7v19.4v44.6c0,4.8-3.9,8.7-8.7,8.7
		C283.4,335.4,281.3,334.6,279.7,333.2z"/>
	<path class="st5" d="M270.7,283v30.3l14.7,13.3V282v-11.6l8.8-7.6v19.4v44.6c0,4.8-3.9,8.7-8.7,8.7c-2.1,0-4.2-0.8-5.8-2.2
		l-17.9-16.1v-26.6L270.7,283z"/>
	<path class="st3" d="M264.8,303.1l-61.7-52.9v76.6c0,12.9,10.5,23.4,23.4,23.4l0,0c5.8,0,11.3-2.1,15.6-6l22.7-20.4V303.1z"/>
	<path class="st4" d="M232.3,333.2l17.9-16.1v-26.6l-32.3-27.7v19.4v44.6c0,4.8,3.9,8.7,8.7,8.7
		C228.6,335.4,230.7,334.6,232.3,333.2z"/>
	<g>
		<path class="st5" d="M241.3,283v30.3l-14.7,13.3V282v-11.6l-8.8-7.6v19.4v44.6c0,4.8,3.9,8.7,8.7,8.7c2.1,0,4.2-0.8,5.8-2.2
			l17.9-16.1v-26.6L241.3,283z"/>
		<rect x="306.8" y="250.5" class="st5" width="4.2" height="25.3"/>
		<rect x="201" y="250.5" class="st5" width="4.2" height="25.3"/>
	</g>
	<g>
		<path class="st6" d="M247.2,238.5c0,0,5.9-27.9-14.7-24.2c-20.6,3.7-20.6,9.6-44.1,21.3c0,0,26.4,5.9,38.2,2.9
			c0,0,8.8,11.8,17.6,14.7h8.8L247.2,238.5z"/>
		<path class="st6" d="M264.8,238.5c0,0-5.9-27.9,14.7-24.2c20.6,3.7,20.6,9.6,44.1,21.3c0,0-26.4,5.9-38.2,2.9
			c0,0-8.8,11.8-17.6,14.7h-8.8L264.8,238.5z"/>
		<path class="st6" d="M264.8,253.2h-17.6v-14.8c0-4.8,3.9-8.7,8.7-8.7h0.2c4.8,0,8.7,3.9,8.7,8.7L264.8,253.2L264.8,253.2z"/>
	</g>
	<ellipse transform="matrix(0.1602 -0.9871 0.9871 0.1602 -20.3852 452.9553)" class="st7" cx="256" cy="238.5" rx="5.9" ry="5.9"/>
	<path class="st8" d="M243.4,234.7l11.1,5.9c0.9,0.5,2.1,0.3,2.8-0.4l0,0c0.9-0.9,0.9-2.4,0-3.4l-7.1-7.1h-1.7
		C245.6,229.6,243.4,231.9,243.4,234.7L243.4,234.7z"/>
	<path class="st9" d="M247.2,235.5h-8.9l3.9-4.5c0.7-0.9,1.8-1.3,2.9-1.3h5v3C250.1,234.2,248.8,235.5,247.2,235.5z"/>
	<g>
		<path class="st10" d="M281.1,253.2c-2-2.4-2.4-5.5-1.4-8.2c2.8-0.5,5.8,0.5,7.8,2.8c1.7,2,2.2,4.6,1.7,7c0.6,1,1.3,2.3,2.1,3.8
			c0-0.2,0-0.4,0.1-0.6c0.7-2.4,2.6-4.2,4.9-4.7c1.6,1.7,2.4,4.2,1.7,6.6c-0.6,2.1-2.1,3.6-4,4.4c0.7,1.7,1.5,3.5,2.1,5.4
			c0-0.1,0-0.2,0.1-0.3c1-2.3,3.1-3.8,5.4-4.2c1.4,1.9,1.9,4.4,0.9,6.8c-0.8,2.1-2.6,3.4-4.6,3.9c1,4,1.7,8.3,1.7,12.6h-2.9
			c0-3.8-0.6-7.5-1.4-11.1c-1.8,0.6-3.8,0.5-5.6-0.6c-2.1-1.3-3.3-3.6-3.2-6c2.1-1.1,4.6-1.2,6.8,0.2c0.1,0,0.1,0.1,0.2,0.2
			c-0.6-1.8-1.3-3.5-2-5.1c-1.8,0.8-3.8,1-5.7,0.1c-2.3-1.1-3.6-3.2-3.9-5.6c1.9-1.3,4.5-1.6,6.7-0.6c-0.8-1.6-1.5-2.9-2.1-3.8
			C284.4,255.8,282.5,254.8,281.1,253.2z"/>
		<path class="st10" d="M230.9,253.2c2-2.4,2.4-5.5,1.4-8.2c-2.8-0.5-5.8,0.5-7.8,2.8c-1.7,2-2.2,4.6-1.7,7c-0.6,1-1.3,2.3-2.1,3.8
			c0-0.2,0-0.4-0.1-0.6c-0.7-2.4-2.6-4.2-4.9-4.7c-1.6,1.7-2.4,4.2-1.7,6.6c0.6,2.1,2.1,3.6,4,4.4c-0.7,1.7-1.5,3.5-2.2,5.4
			c0-0.1,0-0.2-0.1-0.3c-1-2.3-3.1-3.8-5.4-4.2c-1.4,1.9-1.9,4.4-0.9,6.8c0.8,2.1,2.6,3.4,4.6,3.9c-1,4-1.7,8.3-1.7,12.6h2.9
			c0-3.8,0.6-7.5,1.4-11.1c1.8,0.6,3.8,0.5,5.6-0.6c2.1-1.3,3.3-3.6,3.2-6c-2.1-1.1-4.6-1.2-6.8,0.2c-0.1,0-0.1,0.1-0.2,0.2
			c0.6-1.8,1.3-3.5,2-5.1c1.8,0.8,3.8,1,5.7,0.1c2.3-1.1,3.6-3.2,3.9-5.6c-1.9-1.3-4.5-1.6-6.7-0.6c0.8-1.6,1.5-2.9,2.1-3.8
			C227.6,255.8,229.5,254.8,230.9,253.2z"/>
	</g>
	<path class="st3" d="M256,317.8l-61.7-52.9v76.6c0,12.9,10.5,23.4,23.4,23.4l0,0c5.8,0,11.3-2.1,15.6-6l22.7-20.5V317.8z"/>
	<path class="st4" d="M223.4,347.9l17.9-16.1v-26.6L209,277.5v19.4v44.6c0,4.8,3.9,8.7,8.7,8.7C219.8,350.1,221.9,349.3,223.4,347.9
		z"/>
	<path class="st5" d="M232.5,297.7v30.3l-14.7,13.3v-44.5v-11.6l-8.8-7.6v19.4v44.6c0,4.8,3.9,8.7,8.7,8.7c2.1,0,4.2-0.8,5.8-2.2
		l17.9-16.1v-26.6L232.5,297.7z"/>
	<path class="st3" d="M256,317.8l61.7-52.9v76.6c0,12.9-10.5,23.4-23.4,23.4l0,0c-5.8,0-11.3-2.1-15.6-6L256,338.4V317.8z"/>
	<path class="st4" d="M288.6,347.9l-17.9-16.1v-26.6l32.3-27.7v19.4v44.6c0,4.8-3.9,8.7-8.7,8.7
		C292.2,350.1,290.1,349.3,288.6,347.9z"/>
	<path class="st5" d="M279.5,297.7v30.3l14.7,13.3v-44.5v-11.6l8.8-7.6v19.4v44.6c0,4.8-3.9,8.7-8.7,8.7c-2.1,0-4.2-0.8-5.8-2.2
		l-17.9-16.1v-26.6L279.5,297.7z"/>
	<ellipse class="st11" cx="256" cy="297.2" rx="29.4" ry="44.1"/>
	<path class="st12" d="M229.6,309h52.9l2.9-11.8l-13.4,2.2c-2.7,0.4-5.4-0.3-7.5-2.1l-15.2-13c-1.4-1.2-3.1-1.8-4.9-1.8l0,0
		c-2,0-3.9,0.8-5.3,2.2l-9.6,9.6L229.6,309L229.6,309z"/>
	<path class="st13" d="M253.2,295.3l5-3.2l-9-7.7c-1.4-1.2-3.1-1.8-4.9-1.8l0,0c-2,0-3.9,0.8-5.3,2.2l-9.6,9.6v2.9l14.7-2.9l2.6,1.3
		C248.9,296.6,251.3,296.5,253.2,295.3z"/>
	<polygon class="st14" points="229.6,309 232.5,326.6 247.2,341.3 256,341.3 267.8,338.4 279.5,326.6 282.4,309 	"/>
	<path class="st15" d="M256,344.2c-17.8,0-32.3-21.1-32.3-47s14.5-47,32.3-47s32.3,21.1,32.3,47S273.8,344.2,256,344.2z M256,256.1
		c-14.6,0-26.4,18.5-26.4,41.1c0,22.7,11.9,41.1,26.4,41.1c14.6,0,26.4-18.5,26.4-41.1C282.4,274.5,270.6,256.1,256,256.1z"/>
	<g>
		<path class="st16" d="M235.3,341c-2.5-3.4-6.1-5.6-10.3-5.6c-4.2,0-7.8,2.2-10.3,5.6c4.2,1.2,7.6,4.6,9.3,9.1c0.7,1.8,1,3.8,1,5.9
			C225,348.7,229.4,342.7,235.3,341z"/>
		<path class="st16" d="M227.3,350.3c0,0-0.2,3.9-2.2,5.8L225,356c-2-1.8-2.2-5.8-2.2-5.8L227.3,350.3z"/>
	</g>
	<path class="st17" d="M292.8,351.6h-73.5c-0.8,0-1.5-0.6-1.5-1.5v0c0-0.8,0.6-1.5,1.5-1.5h73.5c0.8,0,1.5,0.6,1.5,1.5v0
		C294.2,350.9,293.6,351.6,292.8,351.6z"/>
	<path class="st18" d="M270.8,356h-29.5c-3.2,0-5.8-2.6-5.8-5.8v-0.1c0-3.2,2.6-5.8,5.8-5.8h29.5c3.2,0,5.8,2.6,5.8,5.8v0.1
		C276.6,353.4,274,356,270.8,356z"/>
	<path class="st19" d="M229.6,348.7h-10.3c-0.8,0-1.5,0.7-1.5,1.5c0,0.8,0.7,1.5,1.5,1.5h10.3V348.7z"/>
	<polygon class="st4" points="256,356 256,382.9 244.2,379.5 250.1,356 	"/>
	<polygon class="st5" points="253.1,356 247.2,376.6 235.4,373.6 244.2,356 	"/>
	<polygon class="st3" points="241.3,356 232.5,367.8 241.3,370.7 247.2,356 	"/>
	<polygon class="st4" points="256,356 256,382.9 267.8,379.5 261.9,356 	"/>
	<polygon class="st5" points="258.9,356 264.8,376.6 276.6,373.6 267.8,356 	"/>
	<polygon class="st3" points="270.7,356 279.5,367.8 270.7,370.7 264.8,356 	"/>
	<g>
		<polygon class="st5" points="196.4,290.2 192.2,286 192.2,264.9 196.4,264.9 		"/>
		<polygon class="st5" points="319.8,286 315.6,290.2 315.6,264.9 319.8,264.9 		"/>
	</g>
</g>
<path class="st20" d="M391.5,501h-271C60,501,11,452,11,391.5v-271C11,60,60,11,120.5,11h271.1C452,11,501,60,501,120.5v271.1
	C501,452,452,501,391.5,501z"/>
</svg>
